<svg width="16" height="16" viewBox="0 0 16 16" fill="none" xmlns="http://www.w3.org/2000/svg">
<g clip-path="url(#clip0_2_192)">
<path d="M15 7.5C15 8.32843 14.3284 9 13.5 9C12.6716 9 12 8.32843 12 7.5V2.5C12 1.67157 12.6716 1 13.5 1C14.3284 1 15 1.67157 15 2.5V7.5Z" stroke="black" stroke-width="2" stroke-linejoin="round"/>
<path d="M12 6.95099C12 7.34033 12 7.53501 11.964 7.72222C11.932 7.88834 11.8791 8.04974 11.8065 8.20255C11.7247 8.37475 11.6095 8.53164 11.379 8.84543L7.00084 14.8055C6.91103 14.9278 6.76839 15 6.61669 15C5.56369 15 4.71006 14.1464 4.71006 13.0934L4.71006 9.75H4.49837C3.28478 9.75 2.67799 9.75 2.23124 9.50713C1.83876 9.29376 1.52901 8.95513 1.35138 8.54523C1.14919 8.07866 1.20314 7.47427 1.31105 6.26548L1.52082 3.91548C1.61267 2.88647 1.6586 2.37197 1.88849 1.9828C2.09094 1.64007 2.39105 1.36555 2.75042 1.19437C3.15849 1 3.67504 1 4.70814 1L8.8 1C9.92011 1 10.4802 1 10.908 1.21799C11.2843 1.40973 11.5903 1.7157 11.782 2.09202C12 2.51984 12 3.0799 12 4.2L12 6.95099Z" stroke="black" stroke-width="2" stroke-linejoin="round"/>
</g>
<defs>
<clipPath id="clip0_2_192">
<rect width="16" height="16" fill="white"/>
</clipPath>
</defs>
</svg>
